<svg width="39" height="67" viewBox="0 0 39 67" fill="none" xmlns="http://www.w3.org/2000/svg">
<path d="M33.8945 0H5.10547C2.39956 0 0.198242 2.20132 0.198242 4.90723V62.0928C0.198242 64.7987 2.39956 67 5.10547 67H33.8945C36.6004 67 38.8018 64.7987 38.8018 62.0928V4.90723C38.8018 2.20132 36.6004 0 33.8945 0ZM36.8389 53.2598H9.03125C8.48923 53.2598 8.0498 53.6992 8.0498 54.2412C8.0498 54.7832 8.48923 55.2227 9.03125 55.2227H36.8389V62.0928C36.8389 63.7163 35.5181 65.0371 33.8945 65.0371H5.10547C3.4819 65.0371 2.16113 63.7163 2.16113 62.0928V55.2227H5.10547C5.64749 55.2227 6.08691 54.7832 6.08691 54.2412C6.08691 53.6992 5.64749 53.2598 5.10547 53.2598H2.16113V9.81445H36.8389V53.2598ZM36.8389 7.85156H2.16113V4.90723C2.16113 3.28365 3.4819 1.96289 5.10547 1.96289H33.8945C35.5181 1.96289 36.8389 3.28365 36.8389 4.90723V7.85156Z" fill="#0A7F2E"/>
</svg>
