<svg width="19" height="126" viewBox="0 0 19 126" fill="none" xmlns="http://www.w3.org/2000/svg">
<path d="M4.768 81.536C4.77867 81.0133 4.80533 80.4747 4.848 79.92C4.89067 79.3653 4.97067 78.8107 5.088 78.256L6.112 78.352C6.09067 78.8107 6.07467 79.3173 6.064 79.872C6.04267 80.4267 6.032 80.96 6.032 81.472C6.032 82.0053 6.05867 82.4373 6.112 82.768C6.16533 83.088 6.30933 83.3227 6.544 83.472C6.77867 83.6213 7.168 83.696 7.712 83.696C8.32 83.696 8.74667 83.5893 8.992 83.376C9.22667 83.152 9.40267 82.7947 9.52 82.304L10.08 80.064C10.2827 79.2107 10.64 78.6293 11.152 78.32C11.6533 78 12.3307 77.84 13.184 77.84C14.0267 77.84 14.6667 77.968 15.104 78.224C15.5307 78.48 15.8187 78.88 15.968 79.424C16.1173 79.968 16.192 80.672 16.192 81.536C16.192 81.8987 16.176 82.3733 16.144 82.96C16.112 83.536 16.0267 84.2027 15.888 84.96L14.848 84.864C14.8693 84.2347 14.8907 83.728 14.912 83.344C14.9227 82.96 14.928 82.6293 14.928 82.352C14.928 82.0747 14.928 81.7867 14.928 81.488C14.928 80.9227 14.8853 80.48 14.8 80.16C14.7147 79.8293 14.544 79.6 14.288 79.472C14.032 79.3333 13.6533 79.264 13.152 79.264C12.7253 79.264 12.3947 79.312 12.16 79.408C11.9253 79.504 11.7493 79.6587 11.632 79.872C11.504 80.0747 11.4027 80.336 11.328 80.656L10.752 82.944C10.5493 83.744 10.1973 84.3093 9.696 84.64C9.19467 84.96 8.52267 85.12 7.68 85.12C6.816 85.12 6.18133 84.992 5.776 84.736C5.36 84.48 5.088 84.0907 4.96 83.568C4.832 83.0347 4.768 82.3573 4.768 81.536ZM8.016 72.4552C8.016 72.1139 8.04267 71.7086 8.096 71.2392C8.13867 70.7592 8.23467 70.3272 8.384 69.9432L9.264 70.1192C9.232 70.4712 9.21067 70.8446 9.2 71.2392C9.17867 71.6232 9.168 71.9539 9.168 72.2312C9.168 72.8499 9.25333 73.3406 9.424 73.7032C9.59467 74.0659 9.89333 74.3272 10.32 74.4872C10.7467 74.6472 11.3387 74.7272 12.096 74.7272C12.8533 74.7272 13.4507 74.6472 13.888 74.4872C14.3147 74.3272 14.6133 74.0659 14.784 73.7032C14.9547 73.3406 15.04 72.8499 15.04 72.2312C15.04 71.9966 15.0293 71.6552 15.008 71.2072C14.9867 70.7592 14.944 70.3379 14.88 69.9432L15.792 69.7992C15.9307 70.1939 16.032 70.6259 16.096 71.0952C16.16 71.5539 16.192 72.0126 16.192 72.4712C16.192 73.3672 16.0587 74.0872 15.792 74.6312C15.5253 75.1752 15.0933 75.5699 14.496 75.8152C13.8987 76.0499 13.0987 76.1672 12.096 76.1672C11.0933 76.1672 10.2933 76.0446 9.696 75.7992C9.09867 75.5539 8.672 75.1592 8.416 74.6152C8.14933 74.0712 8.016 73.3512 8.016 72.4552ZM8.208 66.8991L9.44 66.7551C8.992 66.1898 8.64533 65.6298 8.4 65.0751C8.144 64.5098 8.016 63.9605 8.016 63.4271V63.0751L9.296 63.2351V63.6831C9.296 64.1205 9.38667 64.5631 9.568 65.0111C9.73867 65.4485 9.97867 65.9765 10.288 66.5951H16V67.9551H8.208V66.8991ZM8.016 58.4404C8.016 57.5444 8.14933 56.8297 8.416 56.2964C8.68267 55.7524 9.12 55.363 9.728 55.1284C10.3253 54.8937 11.12 54.7764 12.112 54.7764C13.104 54.7764 13.904 54.8937 14.512 55.1284C15.1093 55.363 15.5413 55.7524 15.808 56.2964C16.0747 56.8297 16.208 57.5444 16.208 58.4404C16.208 59.3257 16.0747 60.0404 15.808 60.5844C15.5413 61.1177 15.1093 61.507 14.512 61.7524C13.904 61.987 13.104 62.1044 12.112 62.1044C11.12 62.1044 10.3253 61.987 9.728 61.7524C9.12 61.507 8.68267 61.1177 8.416 60.5844C8.14933 60.0404 8.016 59.3257 8.016 58.4404ZM9.168 58.4404C9.168 59.0057 9.25867 59.4537 9.44 59.7844C9.61067 60.1044 9.90933 60.3337 10.336 60.4724C10.7627 60.611 11.3547 60.6804 12.112 60.6804C12.8693 60.6804 13.4613 60.611 13.888 60.4724C14.3147 60.3337 14.6187 60.1044 14.8 59.7844C14.9707 59.4537 15.056 59.0057 15.056 58.4404C15.056 57.875 14.9707 57.427 14.8 57.0964C14.6187 56.7657 14.3147 56.531 13.888 56.3924C13.4613 56.2537 12.8693 56.1844 12.112 56.1844C11.3547 56.1844 10.7627 56.2537 10.336 56.3924C9.90933 56.531 9.61067 56.7657 9.44 57.0964C9.25867 57.427 9.168 57.875 9.168 58.4404ZM4.8 51.2666L13.856 51.2826C14.5493 51.2826 14.896 50.9253 14.896 50.2106V49.4586L15.936 49.2986C16.0107 49.448 16.064 49.6773 16.096 49.9866C16.128 50.2853 16.144 50.5306 16.144 50.7226C16.144 51.2986 15.9733 51.7626 15.632 52.1146C15.2907 52.456 14.8 52.6266 14.16 52.6266H4.8V51.2666ZM4.8 46.5166L13.856 46.5326C14.5493 46.5326 14.896 46.1753 14.896 45.4606V44.7086L15.936 44.5486C16.0107 44.698 16.064 44.9273 16.096 45.2366C16.128 45.5353 16.144 45.7806 16.144 45.9726C16.144 46.5486 15.9733 47.0126 15.632 47.3646C15.2907 47.706 14.8 47.8766 14.16 47.8766H4.8V46.5166ZM8.016 37.3944C8.016 36.4237 8.25067 35.501 8.72 34.6264C8.47467 34.6477 8.22933 34.6637 7.984 34.6744C7.73867 34.685 7.47733 34.6904 7.2 34.6904H4.8V33.3304H16V34.3864L14.88 34.5144C15.2427 34.941 15.552 35.4157 15.808 35.9384C16.064 36.4504 16.192 37.005 16.192 37.6024C16.192 38.5837 15.8453 39.2877 15.152 39.7144C14.4587 40.1304 13.4347 40.3384 12.08 40.3384C11.0667 40.3384 10.2667 40.2317 9.68 40.0184C9.08267 39.805 8.656 39.4797 8.4 39.0424C8.144 38.605 8.016 38.0557 8.016 37.3944ZM12.064 38.9464C12.832 38.9464 13.4293 38.8877 13.856 38.7704C14.2827 38.6424 14.5813 38.445 14.752 38.1784C14.9227 37.9117 15.008 37.5704 15.008 37.1544C15.008 36.717 14.9227 36.3277 14.752 35.9864C14.5813 35.645 14.3093 35.213 13.936 34.6904H9.632C9.504 35.149 9.40267 35.5597 9.328 35.9224C9.24267 36.285 9.2 36.669 9.2 37.0744C9.2 37.5224 9.28 37.885 9.44 38.1624C9.58933 38.429 9.872 38.6264 10.288 38.7544C10.704 38.8824 11.296 38.9464 12.064 38.9464ZM8.016 27.5185C8.016 26.6225 8.14933 25.9078 8.416 25.3745C8.68267 24.8305 9.12 24.4412 9.728 24.2065C10.3253 23.9718 11.12 23.8545 12.112 23.8545C13.104 23.8545 13.904 23.9718 14.512 24.2065C15.1093 24.4412 15.5413 24.8305 15.808 25.3745C16.0747 25.9078 16.208 26.6225 16.208 27.5185C16.208 28.4038 16.0747 29.1185 15.808 29.6625C15.5413 30.1958 15.1093 30.5852 14.512 30.8305C13.904 31.0652 13.104 31.1825 12.112 31.1825C11.12 31.1825 10.3253 31.0652 9.728 30.8305C9.12 30.5852 8.68267 30.1958 8.416 29.6625C8.14933 29.1185 8.016 28.4038 8.016 27.5185ZM9.168 27.5185C9.168 28.0838 9.25867 28.5318 9.44 28.8625C9.61067 29.1825 9.90933 29.4118 10.336 29.5505C10.7627 29.6892 11.3547 29.7585 12.112 29.7585C12.8693 29.7585 13.4613 29.6892 13.888 29.5505C14.3147 29.4118 14.6187 29.1825 14.8 28.8625C14.9707 28.5318 15.056 28.0838 15.056 27.5185C15.056 26.9532 14.9707 26.5052 14.8 26.1745C14.6187 25.8438 14.3147 25.6092 13.888 25.4705C13.4613 25.3318 12.8693 25.2625 12.112 25.2625C11.3547 25.2625 10.7627 25.3318 10.336 25.4705C9.90933 25.6092 9.61067 25.8438 9.44 26.1745C9.25867 26.5052 9.168 26.9532 9.168 27.5185ZM8.208 10.2316L15.616 12.5036C15.872 12.5676 16 12.7436 16 13.0316V14.2636C16 14.3916 15.9627 14.509 15.888 14.6156C15.8027 14.7116 15.696 14.7703 15.568 14.7916L10.272 16.0716C10.0693 16.1143 9.86667 16.157 9.664 16.1996C9.46133 16.2316 9.25333 16.2743 9.04 16.3276V16.5196C9.25333 16.5623 9.46133 16.6103 9.664 16.6636C9.86667 16.7063 10.0693 16.749 10.272 16.7916L15.568 18.0556C15.856 18.1303 16 18.3116 16 18.5996V19.8156C16 20.1036 15.872 20.2796 15.616 20.3436L8.208 22.6156V21.2076L13.952 19.5916C14.144 19.5383 14.3413 19.4903 14.544 19.4476C14.736 19.405 14.928 19.3676 15.12 19.3356V19.1276C14.928 19.0743 14.736 19.0263 14.544 18.9836C14.3413 18.9303 14.144 18.8823 13.952 18.8396L8.64 17.5436C8.352 17.4903 8.208 17.3196 8.208 17.0316V15.7996C8.208 15.533 8.35733 15.3623 8.656 15.2876L13.952 14.0076C14.144 13.965 14.336 13.9223 14.528 13.8796C14.72 13.8263 14.9173 13.7783 15.12 13.7356V13.5276C14.9173 13.4743 14.7253 13.4316 14.544 13.3996C14.352 13.3676 14.1547 13.3196 13.952 13.2556L8.208 11.6396V10.2316ZM8.208 7.42812L9.44 7.33212C8.98133 6.74546 8.62933 6.16412 8.384 5.58812C8.13867 5.00146 8.016 4.42012 8.016 3.84412C8.016 2.43612 8.73067 1.73212 10.16 1.73212H16V3.09212H10.544C10.0213 3.09212 9.664 3.17746 9.472 3.34812C9.26933 3.51879 9.168 3.80679 9.168 4.21212C9.168 4.67079 9.28 5.13479 9.504 5.60413C9.71733 6.06279 10.0107 6.60146 10.384 7.22012H16V8.58012H8.208V7.42812Z" fill="#CCCCCC"/>
<path d="M12 96L12 126" stroke="#CCCCCC"/>
</svg>
