<svg width="69" height="362" viewBox="0 0 69 362" fill="none" xmlns="http://www.w3.org/2000/svg">
<path d="M34.44 219.34L13.5 229L12.6 232.6H12V219.7H12.6L13.5 223.3L28.5 216.4L14.1 209.2L12.6 213.1H12V204.1H12.6L14.1 208L29.76 215.8L52.5 205.3L53.4 201.7H54V214.6H53.4L52.5 211L35.64 218.8L51.9 226.9L53.4 223H54V232H53.4L51.9 228.1L34.44 219.34ZM52.5 196.593H27.9L27 200.193H26.4V191.793H52.5L53.4 188.193H54V200.193H53.4L52.5 196.593ZM19.5 191.493C20.26 191.493 20.96 191.813 21.6 192.453C22.2 193.053 22.5 193.733 22.5 194.493C22.5 195.253 22.2 195.953 21.6 196.593C20.96 197.193 20.26 197.493 19.5 197.493C18.74 197.493 18.06 197.193 17.46 196.593C16.82 195.953 16.5 195.253 16.5 194.493C16.5 193.733 16.82 193.053 17.46 192.453C18.06 191.813 18.74 191.493 19.5 191.493ZM52.8 167.507C51.12 167.507 49.64 167.167 48.36 166.487C47.04 165.807 45.92 164.947 45 163.907V163.307C45.52 163.387 46.04 163.447 46.56 163.487C47 163.527 47.5 163.567 48.06 163.607C48.58 163.607 49.06 163.607 49.5 163.607C50.18 163.607 50.8 163.607 51.36 163.607C51.88 163.567 52.34 163.527 52.74 163.487C53.18 163.447 53.6 163.387 54 163.307L54 184.607L27.6 169.607V179.207C29.28 179.207 30.78 179.547 32.1 180.227C33.38 180.907 34.48 181.767 35.4 182.807V183.407C34.88 183.367 34.36 183.327 33.84 183.287C33.4 183.247 32.92 183.207 32.4 183.167C31.84 183.127 31.34 183.107 30.9 183.107C30.22 183.107 29.62 183.127 29.1 183.167C28.54 183.207 28.06 183.247 27.66 183.287C27.22 183.327 26.8 183.367 26.4 183.407V163.307L52.8 178.307L52.8 167.507ZM52.5 155.226H27.9L27 158.826H26.4V150.426H30C29.2 150.026 28.46 149.486 27.78 148.806C27.22 148.246 26.7 147.526 26.22 146.646C25.74 145.766 25.5 144.726 25.5 143.526C25.5 142.006 25.78 140.766 26.34 139.806C26.9 138.806 27.52 138.006 28.2 137.406C29 136.686 29.9 136.126 30.9 135.726C29.9 135.206 29 134.586 28.2 133.866C27.52 133.226 26.9 132.446 26.34 131.526C25.78 130.606 25.5 129.506 25.5 128.226C25.5 127.026 25.72 125.926 26.16 124.926C26.6 123.886 27.22 122.986 28.02 122.226C28.78 121.466 29.72 120.886 30.84 120.486C31.92 120.046 33.14 119.826 34.5 119.826H52.5L53.4 116.226H54V127.926H53.4L52.5 124.626H34.5C31.66 124.626 29.66 125.086 28.5 126.006C27.3 126.886 26.7 127.926 26.7 129.126C26.7 130.126 26.98 130.986 27.54 131.706C28.1 132.426 28.72 133.046 29.4 133.566C30.2 134.166 31.1 134.686 32.1 135.126H52.5L53.4 131.826H54V143.226H53.4L52.5 139.926H34.5C31.66 139.926 29.66 140.386 28.5 141.306C27.3 142.186 26.7 143.226 26.7 144.426C26.7 145.426 26.98 146.286 27.54 147.006C28.1 147.726 28.72 148.346 29.4 148.866C30.2 149.466 31.1 149.986 32.1 150.426H52.5L53.4 147.126H54V158.826H53.4L52.5 155.226ZM39.3 96.7539C39.3 100.234 40.08 102.814 41.64 104.494C43.16 106.134 45.28 106.954 48 106.954C49.8 106.954 51.2 106.514 52.2 105.634C53.2 104.754 53.7 103.794 53.7 102.754C53.7 101.794 53.42 100.954 52.86 100.234C52.3 99.4739 51.68 98.8339 51 98.3139C50.24 97.7139 49.34 97.1939 48.3 96.7539H39.3ZM26.4 101.254C26.4 102.454 26.82 103.454 27.66 104.254C28.46 105.054 29.54 105.454 30.9 105.454C31.22 105.454 31.5 105.454 31.74 105.454C31.98 105.414 32.2 105.374 32.4 105.334C32.6 105.294 32.8 105.234 33 105.154L34.2 109.954C34.08 110.034 33.92 110.094 33.72 110.134C33.52 110.174 33.3 110.214 33.06 110.254C32.82 110.254 32.5 110.254 32.1 110.254C31.26 110.254 30.46 110.054 29.7 109.654C28.9 109.254 28.2 108.674 27.6 107.914C26.96 107.114 26.46 106.174 26.1 105.094C25.7 103.974 25.5 102.694 25.5 101.254C25.5 98.3739 26.32 96.1139 27.96 94.4739C29.6 92.7939 31.78 91.9539 34.5 91.9539H52.5L53.4 88.3539H54V96.7539H50.4C51.24 97.1939 52 97.7539 52.68 98.4339C53.24 98.9939 53.74 99.7139 54.18 100.594C54.66 101.434 54.9 102.454 54.9 103.654C54.9 106.534 54.22 108.714 52.86 110.194C51.5 111.634 49.68 112.354 47.4 112.354C46.28 112.354 45.16 112.054 44.04 111.454C42.92 110.814 41.92 109.874 41.04 108.634C40.16 107.354 39.46 105.734 38.94 103.774C38.38 101.814 38.1 99.4739 38.1 96.7539H34.5C31.5 96.7539 29.4 97.2139 28.2 98.1339C27 99.0139 26.4 100.054 26.4 101.254ZM26.4 69.4633H27.6V76.3633H46.74C49.18 76.3633 50.96 75.9233 52.08 75.0433C53.16 74.1633 53.7 73.2033 53.7 72.1633C53.7 70.8033 53.2 69.6633 52.2 68.7433C51.16 67.7833 49.66 67.2233 47.7 67.0633V66.1633C49.98 66.3233 51.76 67.0233 53.04 68.2633C54.28 69.4633 54.9 70.9633 54.9 72.7633C54.9 75.3233 54.16 77.3633 52.68 78.8833C51.16 80.4033 49.2 81.1633 46.8 81.1633H27.6V86.2633H26.4V81.1633H19.5L16.2 76.3633H26.4V69.4633ZM52.5 60.1352H13.5L12.6 63.7352H12V55.3352H52.5L53.4 51.7352H54L54 63.7352H53.4L52.5 60.1352ZM39.3 32.2422C39.3 35.7222 40.08 38.3022 41.64 39.9822C43.16 41.6222 45.28 42.4422 48 42.4422C49.8 42.4422 51.2 42.0022 52.2 41.1222C53.2 40.2422 53.7 39.2822 53.7 38.2422C53.7 37.2822 53.42 36.4422 52.86 35.7222C52.3 34.9622 51.68 34.3222 51 33.8022C50.24 33.2022 49.34 32.6822 48.3 32.2422H39.3ZM26.4 36.7422C26.4 37.9422 26.82 38.9422 27.66 39.7422C28.46 40.5422 29.54 40.9422 30.9 40.9422C31.22 40.9422 31.5 40.9422 31.74 40.9422C31.98 40.9022 32.2 40.8622 32.4 40.8222C32.6 40.7822 32.8 40.7222 33 40.6422L34.2 45.4422C34.08 45.5222 33.92 45.5822 33.72 45.6222C33.52 45.6622 33.3 45.7022 33.06 45.7422C32.82 45.7422 32.5 45.7422 32.1 45.7422C31.26 45.7422 30.46 45.5422 29.7 45.1422C28.9 44.7422 28.2 44.1622 27.6 43.4022C26.96 42.6022 26.46 41.6622 26.1 40.5822C25.7 39.4622 25.5 38.1822 25.5 36.7422C25.5 33.8622 26.32 31.6022 27.96 29.9622C29.6 28.2822 31.78 27.4422 34.5 27.4422H52.5L53.4 23.8422H54V32.2422H50.4C51.24 32.6822 52 33.2422 52.68 33.9222C53.24 34.4822 53.74 35.2022 54.18 36.0822C54.66 36.9222 54.9 37.9422 54.9 39.1422C54.9 42.0222 54.22 44.2022 52.86 45.6822C51.5 47.1222 49.68 47.8422 47.4 47.8422C46.28 47.8422 45.16 47.5422 44.04 46.9422C42.92 46.3022 41.92 45.3622 41.04 44.1222C40.16 42.8422 39.46 41.2222 38.94 39.2622C38.38 37.3022 38.1 34.9622 38.1 32.2422H34.5C31.5 32.2422 29.4 32.7022 28.2 33.6222C27 34.5022 26.4 35.5422 26.4 36.7422ZM52.5 11.8516L53.4 8.25156H54V20.2516H53.4L52.5 16.6516H27.9L27 20.2516H26.4V11.8516H33.6C32.12 11.3316 30.78 10.7116 29.58 9.99156C28.54 9.35156 27.6 8.57156 26.76 7.65156C25.92 6.73156 25.5 5.63156 25.5 4.35156C25.5 3.91156 25.54 3.49156 25.62 3.09156C25.66 2.69156 25.72 2.33156 25.8 2.01156C25.92 1.65156 26.02 1.33156 26.1 1.05156L30.6 2.85156C30.48 3.09156 30.34 3.35156 30.18 3.63156C30.06 3.87156 29.96 4.17156 29.88 4.53156C29.76 4.85156 29.7 5.19156 29.7 5.55156C29.7 6.59156 29.98 7.51156 30.54 8.31156C31.1 9.11156 31.72 9.77156 32.4 10.2916C33.2 10.9316 34.1 11.4516 35.1 11.8516H52.5Z" fill="#DDDDDD"/>
<path d="M36 262L36 362" stroke="#DDDDDD"/>
</svg>
